<svg width="18" height="66" viewBox="0 0 18 66" fill="none" xmlns="http://www.w3.org/2000/svg">
<path d="M8.97359 65.1112C6.64405 65.1112 4.64121 64.2873 2.96507 62.6396C1.28893 60.9635 0.450867 58.9464 0.450867 56.5885C0.450867 54.2589 1.28893 52.2703 2.96507 50.6226C4.64121 48.9464 6.64405 48.1084 8.97359 48.1084C11.3031 48.1084 13.306 48.9464 14.9821 50.6226C16.6583 52.2703 17.4963 54.2589 17.4963 56.5885C17.4963 58.151 17.0986 59.5856 16.3031 60.8924C15.5361 62.1709 14.5134 63.1936 13.235 63.9606C11.9565 64.7277 10.5361 65.1112 8.97359 65.1112ZM8.97359 17.4691C6.64405 17.4691 4.64121 16.6311 2.96507 14.9549C1.28893 13.2788 0.450867 11.276 0.450867 8.94642C0.450867 6.61688 1.28893 4.62824 2.96507 2.98051C4.64121 1.30438 6.64405 0.466309 8.97359 0.466309C11.3031 0.466309 13.306 1.30438 14.9821 2.98051C16.6583 4.62824 17.4963 6.61688 17.4963 8.94642C17.4963 10.5089 17.0986 11.9436 16.3031 13.2504C15.5361 14.5288 14.5134 15.5515 13.235 16.3186C11.9565 17.0856 10.5361 17.4691 8.97359 17.4691Z" fill="white"/>
</svg>
