<svg width="56" height="39" viewBox="0 0 56 39" fill="none" xmlns="http://www.w3.org/2000/svg">
<path d="M38.446 19.3795C43.232 19.3795 47.132 15.1165 47.132 9.9295C47.132 4.8015 43.252 0.739502 38.446 0.739502C33.68 0.739502 29.759 4.8615 29.759 9.9695C29.779 15.1365 33.68 19.3795 38.446 19.3795ZM15.282 19.8215C19.424 19.8215 22.822 16.1015 22.822 11.5375C22.822 7.0735 19.464 3.4745 15.282 3.4745C11.14 3.4745 7.722 7.1345 7.742 11.5775C7.762 16.1225 11.14 19.8215 15.282 19.8215ZM38.446 16.3435C35.51 16.3435 32.996 13.5285 32.996 9.9695C32.996 6.4695 35.47 3.7765 38.446 3.7765C41.442 3.7765 43.895 6.4305 43.895 9.9285C43.895 13.4885 41.422 16.3435 38.446 16.3435ZM15.282 16.8255C12.829 16.8255 10.738 14.4735 10.738 11.5775C10.738 8.7425 12.808 6.4705 15.282 6.4705C17.815 6.4705 19.846 8.7025 19.846 11.5375C19.846 14.4735 17.755 16.8255 15.282 16.8255ZM4.102 38.2605H19.887C18.921 37.7175 18.177 36.5105 18.318 35.2845H3.6C3.198 35.2845 2.997 35.1245 2.997 34.7415C2.997 29.7555 8.687 25.0905 15.263 25.0905C17.796 25.0905 20.068 25.6935 22.019 26.8395C22.6658 26.0198 23.4316 25.3015 24.291 24.7085C21.697 22.9985 18.581 22.1145 15.263 22.1145C6.837 22.1145 0 28.2265 0 34.9225C0 37.1545 1.367 38.2605 4.102 38.2605ZM25.818 38.2605H51.074C54.411 38.2605 56 37.2555 56 35.0435C56 29.7755 49.344 22.1535 38.446 22.1535C27.527 22.1535 20.872 29.7755 20.872 35.0435C20.872 37.2555 22.46 38.2605 25.818 38.2605ZM24.853 35.2245C24.33 35.2245 24.109 35.0845 24.109 34.6615C24.109 31.3635 29.216 25.1915 38.446 25.1915C47.656 25.1915 52.762 31.3635 52.762 34.6615C52.762 35.0835 52.562 35.2245 52.038 35.2245H24.853Z" fill="white"/>
</svg>
